HIERARCHY
ROOT Root
{
	OFFSET 0.00000 0.00000 0.00000
	CHANNELS 6 Xposition Yposition Zposition Zrotation Xrotation Yrotation
	JOINT Hip
	{
		OFFSET 0 0 0	
		CHANNELS 3 Zrotation Xrotation Yrotation
		JOINT Tummy
		{
			OFFSET 0 0.04 0	
			CHANNELS 3 Zrotation Xrotation Yrotation
			JOINT ChestBottom
			{
				OFFSET 0 0.194 0	
				CHANNELS 3 Zrotation Xrotation Yrotation
				JOINT ChestTop
				{
					OFFSET 0 0.166 0	
					CHANNELS 3 Zrotation Xrotation Yrotation
					JOINT LeftCollar
					{
						OFFSET 0 0.1 0	
						CHANNELS 3 Zrotation Xrotation Yrotation
						JOINT LeftUpperArm
						{
							OFFSET 0.156 -0.02 0.03	
							CHANNELS 3 Zrotation Xrotation Yrotation
							JOINT LeftForeArm
							{
								OFFSET 0.035 -0.27 -0.01	
								CHANNELS 3 Zrotation Xrotation Yrotation
								JOINT LeftHand
								{
									OFFSET 0.01 -0.27 0.01	
									CHANNELS 3 Zrotation Xrotation Yrotation
									End Site
									{
										OFFSET 0 -0.15 0
									}
								}
							}
						}
					}
					JOINT RightCollar
					{
						OFFSET 0 0.1 0	
						CHANNELS 3 Zrotation Xrotation Yrotation
						JOINT RightUpperArm
						{
							OFFSET -0.156 -0.02 0.03	
							CHANNELS 3 Zrotation Xrotation Yrotation
							JOINT RightForeArm
							{
								OFFSET -0.035 -0.27 -0.01	
								CHANNELS 3 Zrotation Xrotation Yrotation
								JOINT RightHand
								{
									OFFSET -0.01 -0.27 0.01	
									CHANNELS 3 Zrotation Xrotation Yrotation
									End Site
									{
										OFFSET 0 -0.15 0
									}
								}
							}
						}
					}
					JOINT Neck
					{
						OFFSET 0 0.1 0	
						CHANNELS 3 Zrotation Xrotation Yrotation
						JOINT Head
						{
							OFFSET 0 0.127 0.03	
							CHANNELS 3 Zrotation Xrotation Yrotation
							End Site
							{
								OFFSET 0 0.127 0.03
							}
						}
					}
				}
			}
		}
	}
	JOINT LeftHip
	{
		OFFSET 0 0 0	
		CHANNELS 3 Zrotation Xrotation Yrotation
		JOINT LeftThigh
		{
			OFFSET 0.088 -0.06 0	
			CHANNELS 3 Zrotation Xrotation Yrotation
			JOINT LeftLowerLeg
			{
				OFFSET 0 -0.39 0.02	
				CHANNELS 3 Zrotation Xrotation Yrotation
				JOINT LeftFootTop
				{
					OFFSET 0 -0.43 -0.02	
					CHANNELS 3 Zrotation Xrotation Yrotation
					JOINT LeftFootFront
					{
						OFFSET 0 -0.07 0.085	
						CHANNELS 3 Zrotation Xrotation Yrotation
						End Site
						{
							OFFSET 0 -0.005 0.09
						}
					}
				}
				JOINT LeftHeel
				{
					OFFSET 0 -0.43 -0.02	
					CHANNELS 3 Zrotation Xrotation Yrotation
					End Site
					{
						OFFSET 0 -0.075 -0.05
					}
				}
			}
		}
	}
	JOINT RightHip
	{
		OFFSET 0 0 0	
		CHANNELS 3 Zrotation Xrotation Yrotation
		JOINT RightThigh
		{
			OFFSET -0.088 -0.06 0	
			CHANNELS 3 Zrotation Xrotation Yrotation
			JOINT RightLowerLeg
			{
				OFFSET 0 -0.39 0.02	
				CHANNELS 3 Zrotation Xrotation Yrotation
				JOINT RightFootTop
				{
					OFFSET 0 -0.43 -0.02	
					CHANNELS 3 Zrotation Xrotation Yrotation
					JOINT RightFootFront
					{
						OFFSET 0 -0.07 0.085	
						CHANNELS 3 Zrotation Xrotation Yrotation
						End Site
						{
							OFFSET 0 -0.005 0.09
						}
					}
				}
				JOINT RightHeel
				{
					OFFSET 0 -0.43 -0.02	
					CHANNELS 3 Zrotation Xrotation Yrotation
					End Site
					{
						OFFSET 0 -0.075 -0.05
					}
				}
			}
		}
	}
}
MOTION
Frames: 12
Frame Time: 0.05
0 0.955 0 -0 0 -0 -0 0 -0 -0 0 -0 1.827 9.0078 14.755 -0 0 -0 -0 0 -0 -1.3001 -48.94 5.1509 -99.443 -15.504 -16.354 -0 0 -0 -0 0 -0 -13.131 -36.362 11.038 -35.214 -73.867 -25.852 -0 0 -0 -3.7174 -8.9224 2.8784 -3.7174 -8.9224 2.8784 -0 0 -0 -0 0 -0 -0 0 -0 -0 0 -0 -0 0 -0 -0 0 -0 -0 0 -0 -0 0 -0 -0 0 -0 -0 0 -0 -0 0 -0 -0 0 -0 
0 0.955 0 -0 0 -0 -0 0 -0 -0 0 -0 1.8067 8.6702 14.469 -0 0 -0 -0 0 -0 -0.86189 -48.168 6.2835 -99.188 -16.439 -15.866 -0 0 -0 -0 0 -0 -13.306 -34.753 11.094 -32.945 -73.505 -17.657 -0 0 -0 -3.6468 -8.601 2.9334 -3.6468 -8.601 2.9334 -0 0 -0 -0 0 -0 -0 0 -0 -0 0 -0 -0 0 -0 -0 0 -0 -0 0 -0 -0 0 -0 -0 0 -0 -0 0 -0 -0 0 -0 -0 0 -0 
0 0.955 0 -0 0 -0 -0 0 -0 -0 0 -0 1.9893 8.4463 14.28 -0 0 -0 -0 0 -0 -0.54717 -47.473 7.2097 -99.356 -16.95 -15.364 -0 0 -0 -0 0 -0 -13.744 -33.891 10.455 -31.269 -73.55 -13.908 -0 0 -0 -3.7791 -8.4424 2.9229 -3.7791 -8.4424 2.9229 -0 0 -0 -0 0 -0 -0 0 -0 -0 0 -0 -0 0 -0 -0 0 -0 -0 0 -0 -0 0 -0 -0 0 -0 -0 0 -0 -0 0 -0 -0 0 -0 
0 0.955 0 -0 0 -0 -0 0 -0 -0 0 -0 2.0654 8.1938 14.263 -0 0 -0 -0 0 -0 -0.22072 -46.757 7.912 -99.574 -16.854 -15.22 -0 0 -0 -0 0 -0 -14.447 -33.405 9.8312 -33.095 -73.969 -12.596 -0 0 -0 -3.9026 -8.3408 2.8682 -3.9026 -8.3408 2.8682 -0 0 -0 -0 0 -0 -0 0 -0 -0 0 -0 -0 0 -0 -0 0 -0 -0 0 -0 -0 0 -0 -0 0 -0 -0 0 -0 -0 0 -0 -0 0 -0 
0 0.955 0 -0 0 -0 -0 0 -0 -0 0 -0 2.0159 8.0531 14.303 -0 0 -0 -0 0 -0 0.096008 -46.171 8.6095 -99.707 -16.309 -15.206 -0 0 -0 -0 0 -0 -15.119 -33.138 9.9323 -32.437 -73.723 -10.789 -0 0 -0 -3.923 -8.3992 2.7807 -3.923 -8.3992 2.7807 -0 0 -0 -0 0 -0 -0 0 -0 -0 0 -0 -0 0 -0 -0 0 -0 -0 0 -0 -0 0 -0 -0 0 -0 -0 0 -0 -0 0 -0 -0 0 -0 
0 0.955 0 -0 0 -0 -0 0 -0 -0 0 -0 1.8246 8.1293 14.223 -0 0 -0 -0 0 -0 0.4995 -45.844 9.5207 -99.79 -15.678 -15.43 -0 0 -0 -0 0 -0 -15.199 -33.403 10.323 -30.608 -73.531 -8.1163 -0 0 -0 -3.846 -8.6615 2.7767 -3.846 -8.6615 2.7767 -0 0 -0 -0 0 -0 -0 0 -0 -0 0 -0 -0 0 -0 -0 0 -0 -0 0 -0 -0 0 -0 -0 0 -0 -0 0 -0 -0 0 -0 -0 0 -0 
0 0.955 0 -0 0 -0 -0 0 -0 -0 0 -0 1.6701 8.1955 14.223 -0 0 -0 -0 0 -0 0.61231 -45.521 10.255 -99.843 -15.19 -15.791 -0 0 -0 -0 0 -0 -14.44 -33.86 10.453 -28.902 -73.286 -7.9007 -0 0 -0 -3.7986 -8.8901 2.7598 -3.7986 -8.8901 2.7598 -0 0 -0 -0 0 -0 -0 0 -0 -0 0 -0 -0 0 -0 -0 0 -0 -0 0 -0 -0 0 -0 -0 0 -0 -0 0 -0 -0 0 -0 -0 0 -0 
0 0.955 0 -0 0 -0 -0 0 -0 -0 0 -0 1.5684 8.2617 14.327 -0 0 -0 -0 0 -0 0.68543 -45.143 10.857 -100 -14.993 -15.821 -0 0 -0 -0 0 -0 -12.936 -34.21 10.928 -33.017 -73.601 -10.807 -0 0 -0 -3.8305 -9.2536 2.6235 -3.8305 -9.2536 2.6235 -0 0 -0 -0 0 -0 -0 0 -0 -0 0 -0 -0 0 -0 -0 0 -0 -0 0 -0 -0 0 -0 -0 0 -0 -0 0 -0 -0 0 -0 -0 0 -0 
0 0.955 0 -0 0 -0 -0 0 -0 -0 0 -0 1.4223 8.3658 14.577 -0 0 -0 -0 0 -0 0.89036 -44.751 11.442 -100.37 -14.791 -15.66 -0 0 -0 -0 0 -0 -11.031 -34.53 11.542 -42.571 -73.776 -18.973 -0 0 -0 -3.894 -10.033 2.3783 -3.894 -10.033 2.3783 -0 0 -0 -0 0 -0 -0 0 -0 -0 0 -0 -0 0 -0 -0 0 -0 -0 0 -0 -0 0 -0 -0 0 -0 -0 0 -0 -0 0 -0 -0 0 -0 
0 0.955 0 -0 0 -0 -0 0 -0 -0 0 -0 1.336 8.5038 14.971 -0 0 -0 -0 0 -0 0.99421 -44.431 11.881 -101.08 -14.338 -15.293 -0 0 -0 -0 0 -0 -9.2926 -35.12 11.894 -54.811 -73.111 -30.775 -0 0 -0 -3.987 -11.277 2.1476 -3.987 -11.277 2.1476 -0 0 -0 -0 0 -0 -0 0 -0 -0 0 -0 -0 0 -0 -0 0 -0 -0 0 -0 -0 0 -0 -0 0 -0 -0 0 -0 -0 0 -0 -0 0 -0 
0 0.955 0 -0 0 -0 -0 0 -0 -0 0 -0 1.2175 8.7016 15.531 -0 0 -0 -0 0 -0 0.79147 -44.28 11.927 -101.81 -13.758 -14.952 -0 0 -0 -0 0 -0 -8.0205 -35.935 12.576 -65.079 -71.262 -42.465 -0 0 -0 -4.0743 -12.738 1.8914 -4.0743 -12.738 1.8914 -0 0 -0 -0 0 -0 -0 0 -0 -0 0 -0 -0 0 -0 -0 0 -0 -0 0 -0 -0 0 -0 -0 0 -0 -0 0 -0 -0 0 -0 -0 0 -0 
0 0.955 0 -0 0 -0 -0 0 -0 -0 0 -0 0.98899 8.8862 16.134 -0 0 -0 -0 0 -0 0.49907 -44.287 11.665 -102.16 -13.413 -14.994 -0 0 -0 -0 0 -0 -7.1607 -36.657 13.99 -71.912 -69.052 -52.028 -0 0 -0 -4.0219 -14.262 1.4758 -4.0219 -14.262 1.4758 -0 0 -0 -0 0 -0 -0 0 -0 -0 0 -0 -0 0 -0 -0 0 -0 -0 0 -0 -0 0 -0 -0 0 -0 -0 0 -0 -0 0 -0 -0 0 -0 
